# Blender v2.92.0 OBJ File: 'scene.blend'
# www.blender.org
mtllib scene.mtl
o Scene_Plane
v -9.999997 0.020823 11.440590
v 10.000004 0.020823 11.440584
v -10.000003 0.000000 -9.999997
v 9.999997 0.000000 -10.000003
v -10.000000 0.000000 0.000003
v 10.000000 0.000000 -0.000003
v -0.643191 -1.000000 -8.713652
v -0.643191 0.392102 -8.713652
v -0.643191 -1.000000 1.225656
v -0.643191 0.392102 1.225656
v -9.842683 -1.000000 -8.713652
v -9.842683 0.392102 -8.713652
v -9.842682 -1.000000 1.225657
v -9.842682 0.392102 1.225657
v 8.962619 -1.439284 3.342479
v 8.962619 0.560716 3.342479
v 8.962619 -1.439284 5.342478
v 8.962619 0.560716 5.342478
v 0.873172 -1.439284 3.342479
v 0.873172 0.560716 3.342479
v 0.237443 -1.439284 5.342478
v 0.237443 0.560716 5.342478
v 11.571141 -1.117829 -2.051458
v 11.571141 0.239260 -2.051458
v 11.571141 -1.117829 -0.405218
v 11.571141 0.239260 -0.405218
v 0.807587 -1.117829 -2.051458
v 0.807587 0.239260 -2.051458
v 0.807587 -1.117829 -0.405218
v 0.807587 0.239260 -0.405218
v 8.962618 -1.439284 4.342479
v 8.962618 0.560716 4.342479
v 0.144904 -1.439284 4.342479
v 0.144904 0.560716 4.342479
vt 0.000000 0.500000
vt 1.000000 0.500000
vt 1.000000 1.000000
vt 0.000000 1.000000
vt 0.000000 0.000000
vt 1.000000 0.000000
vt 0.375000 0.000000
vt 0.625000 0.000000
vt 0.625000 0.250000
vt 0.375000 0.250000
vt 0.625000 0.500000
vt 0.375000 0.500000
vt 0.625000 0.750000
vt 0.375000 0.750000
vt 0.625000 1.000000
vt 0.375000 1.000000
vt 0.125000 0.500000
vt 0.125000 0.750000
vt 0.875000 0.500000
vt 0.875000 0.750000
vt 0.375000 0.125000
vt 0.625000 0.125000
vt 0.625000 0.250000
vt 0.375000 0.250000
vt 0.625000 0.500000
vt 0.375000 0.500000
vt 0.375000 0.625000
vt 0.625000 0.625000
vt 0.625000 0.750000
vt 0.375000 0.750000
vt 0.625000 1.000000
vt 0.375000 1.000000
vt 0.125000 0.625000
vt 0.125000 0.750000
vt 0.875000 0.625000
vt 0.875000 0.750000
vt 0.375000 0.000000
vt 0.625000 0.000000
vt 0.625000 0.250000
vt 0.375000 0.250000
vt 0.625000 0.500000
vt 0.375000 0.500000
vt 0.625000 0.750000
vt 0.375000 0.750000
vt 0.625000 1.000000
vt 0.375000 1.000000
vt 0.125000 0.500000
vt 0.125000 0.750000
vt 0.875000 0.500000
vt 0.875000 0.750000
vt 0.875000 0.500000
vt 0.125000 0.500000
vt 0.375000 0.000000
vt 0.625000 0.000000
vn 0.0000 1.0000 0.0000
vn -0.0000 1.0000 -0.0018
vn 1.0000 0.0000 0.0000
vn 0.0000 0.0000 1.0000
vn -1.0000 0.0000 0.0000
vn 0.0000 0.0000 -1.0000
vn 0.0000 -1.0000 0.0000
vn -0.8084 0.0000 -0.5887
vn -0.9957 0.0000 0.0921
usemtl ground
s off
f 5/1/1 6/2/1 4/3/1 3/4/1
f 1/5/2 2/6/2 6/2/2 5/1/2
f 7/7/3 8/8/3 10/9/3 9/10/3
f 9/10/4 10/9/4 14/11/4 13/12/4
f 13/12/5 14/11/5 12/13/5 11/14/5
f 11/14/6 12/13/6 8/15/6 7/16/6
f 9/17/7 13/12/7 11/14/7 7/18/7
f 14/11/1 10/19/1 8/20/1 12/13/1
f 31/21/3 32/22/3 18/23/3 17/24/3
f 17/24/4 18/23/4 22/25/4 21/26/4
f 33/27/8 34/28/8 20/29/8 19/30/8
f 19/30/6 20/29/6 16/31/6 15/32/6
f 31/33/7 33/27/7 19/30/7 15/34/7
f 34/28/1 32/35/1 16/36/1 20/29/1
f 23/37/3 24/38/3 26/39/3 25/40/3
f 25/40/4 26/39/4 30/41/4 29/42/4
f 29/42/5 30/41/5 28/43/5 27/44/5
f 27/44/6 28/43/6 24/45/6 23/46/6
f 25/47/7 29/42/7 27/44/7 23/48/7
f 30/41/1 26/49/1 24/50/1 28/43/1
f 22/25/1 18/51/1 32/35/1 34/28/1
f 17/52/7 21/26/7 33/27/7 31/33/7
f 21/26/9 22/25/9 34/28/9 33/27/9
f 15/53/3 16/54/3 32/22/3 31/21/3
